<svg width="64" height="64" viewBox="0 0 64 64" fill="none" xmlns="http://www.w3.org/2000/svg">
  <!-- Modern Jeep/SUV Design -->
  <!-- Main Body -->
  <rect x="8" y="26" width="48" height="20" rx="6" fill="#008080"/>
  <!-- Roof -->
  <rect x="14" y="18" width="36" height="12" rx="4" fill="#006666"/>
  <!-- Windshield -->
  <rect x="16" y="16" width="14" height="10" rx="2" fill="rgba(255,255,255,0.4)" stroke="#008080" stroke-width="1"/>
  <!-- Side Windows -->
  <rect x="32" y="20" width="8" height="8" rx="1" fill="rgba(255,255,255,0.4)"/>
  <rect x="42" y="20" width="8" height="8" rx="1" fill="rgba(255,255,255,0.4)"/>
  <!-- Front Grille -->
  <rect x="6" y="30" width="4" height="10" rx="1" fill="#004d4d"/>
  <line x1="7" y1="32" x2="7" y2="38" stroke="#008080" stroke-width="1"/>
  <line x1="9" y1="32" x2="9" y2="38" stroke="#008080" stroke-width="1"/>
  <!-- Headlights -->
  <circle cx="8" cy="28" r="2" fill="#fff" opacity="0.9"/>
  <!-- Wheels -->
  <circle cx="18" cy="50" r="7" fill="#333"/>
  <circle cx="18" cy="50" r="5" fill="#008080" opacity="0.8"/>
  <circle cx="46" cy="50" r="7" fill="#333"/>
  <circle cx="46" cy="50" r="5" fill="#008080" opacity="0.8"/>
  <!-- Coconut Logo Badge -->
  <circle cx="32" cy="35" r="4" fill="#fff" opacity="0.9"/>
  <circle cx="32" cy="35" r="2.5" fill="#8B4513"/>
  <circle cx="32" cy="35" r="1" fill="#F4A460"/>
</svg>