<svg width="64" height="64" viewBox="0 0 64 64" fill="none" xmlns="http://www.w3.org/2000/svg">
  <!-- Ocean Waves Background -->
  <path d="M2 48 Q14 42 26 48 T50 48 T74 48" stroke="#008080" stroke-width="2" fill="none" opacity="0.4"/>
  <path d="M6 52 Q18 46 30 52 T54 52 T78 52" stroke="#008080" stroke-width="1.5" fill="none" opacity="0.3"/>
  <path d="M10 56 Q22 50 34 56 T58 56" stroke="#008080" stroke-width="1" fill="none" opacity="0.2"/>
  
  <!-- Boat Hull -->
  <path d="M10 40 L54 40 Q56 40 56 42 L54 46 Q52 48 50 48 L14 48 Q12 48 10 46 L8 42 Q8 40 10 40 Z" fill="#006666"/>
  <path d="M12 40 L52 40 L50 44 L14 44 Z" fill="#008080"/>
  
  <!-- Mast -->
  <line x1="32" y1="40" x2="32" y2="10" stroke="#8B4513" stroke-width="2.5"/>
  
  <!-- Main Sail -->
  <path d="M32 10 L50 14 Q52 16 50 18 L32 30 Z" fill="rgba(255,255,255,0.95)" stroke="#008080" stroke-width="1.5"/>
  
  <!-- Jib Sail -->
  <path d="M32 12 L18 16 Q16 18 18 20 L32 28 Z" fill="rgba(255,255,255,0.8)" stroke="#008080" stroke-width="1"/>
  
  <!-- Tommy Coconut Flag -->
  <rect x="32" y="10" width="10" height="6" rx="1" fill="#008080"/>
  <circle cx="35" cy="13" r="1.5" fill="#fff"/>
  <circle cx="35" cy="13" r="0.8" fill="#8B4513"/>
  
  <!-- Sun -->
  <circle cx="50" cy="16" r="4" fill="#FFD700" opacity="0.8"/>
  <g stroke="#FFD700" stroke-width="1" opacity="0.6">
    <line x1="50" y1="8" x2="50" y2="10"/>
    <line x1="58" y1="16" x2="56" y2="16"/>
    <line x1="55.5" y1="9.5" x2="54.5" y2="10.5"/>
    <line x1="55.5" y1="22.5" x2="54.5" y2="21.5"/>
    <line x1="44.5" y1="9.5" x2="45.5" y2="10.5"/>
    <line x1="44.5" y1="22.5" x2="45.5" y2="21.5"/>
    <line x1="42" y1="16" x2="44" y2="16"/>
    <line x1="50" y1="24" x2="50" y2="22"/>
  </g>
  
  <!-- Water Splash -->
  <circle cx="16" cy="46" r="1.5" fill="#008080" opacity="0.5"/>
  <circle cx="48" cy="46" r="1.5" fill="#008080" opacity="0.5"/>
</svg>